# xmcd CD database file
#
# Track frame offsets:
#	150
#	14285
#	29278
#	44878
#	63108
#	79220
#	95988
#	115103
#	134605
#	148853
#	165875
#	180885
#	197198
#	216118
#	235470
#	254165
#	274503
#	289528
#	305698
#	327683
#
# Disc length: 4664 seconds
#
# Revision: 0
# Processed by: cddbd v1.5.1PL0 Copyright (c) Steve Scherf et al.
# Submitted via: CDex 1.51
#
DISCID=33123614
DTITLE=Carole Serrat - Message en Rouge and Anniversaire
DYEAR=2004
DGENRE=Pop
TTITLE0=Ces Beaux Jours
TTITLE1=Amour Sens Unique
TTITLE2=Chinese Soup
TTITLE3=Enveloppee de Tendresse
TTITLE4=Un Apres-Midi, la Mer
TTITLE5=Velvet Easter
TTITLE6=Sous la Pluie
TTITLE7=Photo Souvenir
TTITLE8=Message en Rouge
TTITLE9=Miroir Magique
TTITLE10=Chuo Freeway
TTITLE11=Jour de Spleen
TTITLE12=Abandonnee Sur le Quai
TTITLE13=Good Luck And Good Bye
TTITLE14=Downtown Boy
TTITLE15=Exilee
TTITLE16=Pluie de Decembre
TTITLE17=Tout de Moi T'est Acquis
TTITLE18=Le Journal de Bord
TTITLE19=Anniversaire
EXTD=YEAR: 2004
EXTT0=
EXTT1=
EXTT2=
EXTT3=
EXTT4=
EXTT5=
EXTT6=
EXTT7=
EXTT8=
EXTT9=
EXTT10=
EXTT11=
EXTT12=
EXTT13=
EXTT14=
EXTT15=
EXTT16=
EXTT17=
EXTT18=
EXTT19=
PLAYORDER=
